%TF.GenerationSoftware,Altium Limited,Altium Designer,23.8.1 (32)*%
G04 Layer_Physical_Order=2*
G04 Layer_Color=16711680*
%FSLAX45Y45*%
%MOMM*%
%TF.SameCoordinates,393DA38D-9EAD-4A4F-8124-397B525DC7AF*%
%TF.FilePolarity,Positive*%
%TF.FileFunction,Copper,L2,Bot,Signal*%
%TF.Part,Single*%
G01*
G75*
%TA.AperFunction,ViaPad*%
%ADD15C,0.70000*%
G36*
X-120831Y1146157D02*
X-102633Y1138619D01*
X-86254Y1127675D01*
X-72325Y1113746D01*
X-61381Y1097368D01*
X-53843Y1079169D01*
X-50000Y1059849D01*
Y1050000D01*
Y150000D01*
Y140151D01*
X-53843Y120831D01*
X-61381Y102632D01*
X-72325Y86254D01*
X-86254Y72325D01*
X-102633Y61381D01*
X-120831Y53843D01*
X-140151Y50000D01*
X-2769699D01*
X-2808338Y57686D01*
X-2844736Y72762D01*
X-2877493Y94650D01*
X-2905351Y122507D01*
X-2927238Y155264D01*
X-2942314Y191662D01*
X-2950000Y230302D01*
Y250000D01*
Y1050000D01*
Y1059849D01*
X-2946157Y1079169D01*
X-2938619Y1097368D01*
X-2927675Y1113746D01*
X-2913747Y1127675D01*
X-2897368Y1138619D01*
X-2879169Y1146157D01*
X-2859849Y1150000D01*
X-140151D01*
X-120831Y1146157D01*
D02*
G37*
D15*
X-600000Y475000D02*
D03*
X-950000Y550000D02*
D03*
X-1530000Y600000D02*
D03*
X-1900000Y559922D02*
D03*
X-2450000Y400000D02*
D03*
%TF.MD5,abba83beb41ccb3f2352a9655d514d4b*%
M02*
