%TF.GenerationSoftware,Altium Limited,Altium Designer,23.8.1 (32)*%
G04 Layer_Color=65535*
%FSLAX45Y45*%
%MOMM*%
%TF.SameCoordinates,393DA38D-9EAD-4A4F-8124-397B525DC7AF*%
%TF.FilePolarity,Positive*%
%TF.FileFunction,Legend,Top*%
%TF.Part,Single*%
G01*
G75*
%TA.AperFunction,NonConductor*%
%ADD16C,0.25000*%
%ADD17C,0.20000*%
%ADD18C,0.25400*%
D16*
X-2095000Y500000D02*
G03*
X-2095000Y500000I-12500J0D01*
G01*
X-1622500Y695000D02*
G03*
X-1622500Y695000I-12500J0D01*
G01*
X-730000Y350000D02*
G03*
X-730000Y350000I-12500J0D01*
G01*
D17*
X-2397500Y725000D02*
X-2275000D01*
X-2680000Y277500D02*
Y597500D01*
X-2397500Y150000D02*
X-2275000D01*
Y307500D01*
Y567500D02*
Y725000D01*
X-1782190Y484690D02*
Y815310D01*
X-2017810Y484690D02*
Y815310D01*
X-1435000Y450000D02*
Y750000D01*
Y450000D02*
X-1365000D01*
Y750000D01*
X-1435000D02*
X-1365000D01*
X-832190Y474768D02*
Y805388D01*
X-1067810Y474768D02*
Y805388D01*
X-575000Y125000D02*
X-452500D01*
X-170000Y252500D02*
Y572500D01*
X-575000Y700000D02*
X-452500D01*
X-575000Y542500D02*
Y700000D01*
Y125000D02*
Y282500D01*
D18*
X-2775400Y1024600D02*
X-2876968D01*
X-2927751Y973816D01*
X-2876968Y923032D01*
X-2775400D01*
X-2851576D01*
Y1024600D01*
X-2927751Y872249D02*
X-2775400D01*
Y770682D01*
X-2927751Y719898D02*
Y618331D01*
Y669115D01*
X-2775400D01*
X-2927751Y567548D02*
Y516764D01*
Y542156D01*
X-2775400D01*
Y567548D01*
Y516764D01*
X-2927751Y440589D02*
X-2800792D01*
X-2775400Y415197D01*
Y364413D01*
X-2800792Y339021D01*
X-2927751D01*
X-2775400Y288238D02*
X-2927751D01*
X-2876968Y237454D01*
X-2927751Y186671D01*
X-2775400D01*
X-1950000Y326175D02*
X-1899217D01*
X-1924609D01*
Y199217D01*
X-1899217Y173825D01*
X-1873825D01*
X-1848433Y199217D01*
X-2000784Y173825D02*
X-2051567D01*
X-2026176D01*
Y326175D01*
X-2000784Y300783D01*
X-1900000Y1050784D02*
X-1874608Y1076175D01*
X-1823825D01*
X-1798433Y1050784D01*
Y949217D01*
X-1823825Y923825D01*
X-1874608D01*
X-1900000Y949217D01*
X-1950784Y923825D02*
X-2001567D01*
X-1976176D01*
Y1076175D01*
X-1950784Y1050784D01*
X-1298433Y976176D02*
Y849217D01*
X-1323825Y823825D01*
X-1374608D01*
X-1400000Y849217D01*
Y976176D01*
X-1450784Y823825D02*
X-1501567D01*
X-1476176D01*
Y976176D01*
X-1450784Y950784D01*
X-924609Y1050784D02*
X-899217Y1076175D01*
X-848433D01*
X-823041Y1050784D01*
Y949217D01*
X-848433Y923825D01*
X-899217D01*
X-924609Y949217D01*
X-1076959Y923825D02*
X-975392D01*
X-1076959Y1025392D01*
Y1050784D01*
X-1051567Y1076175D01*
X-1000784D01*
X-975392Y1050784D01*
X-874609Y276175D02*
X-823825D01*
X-849217D01*
Y149216D01*
X-823825Y123824D01*
X-798433D01*
X-773041Y149216D01*
X-1026959Y123824D02*
X-925392D01*
X-1026959Y225392D01*
Y250783D01*
X-1001567Y276175D01*
X-950784D01*
X-925392Y250783D01*
%TF.MD5,a9d0a2680799a7f30f0e11aba26a09b9*%
M02*
